<?xml version="1.0" encoding="UTF-8" standalone="no"?>
<!-- Created with Inkscape (http://www.inkscape.org/) -->

<svg
   xmlns:dc="http://purl.org/dc/elements/1.1/"
   xmlns:cc="http://creativecommons.org/ns#"
   xmlns:rdf="http://www.w3.org/1999/02/22-rdf-syntax-ns#"
   xmlns:svg="http://www.w3.org/2000/svg"
   xmlns="http://www.w3.org/2000/svg"
   xmlns:sodipodi="http://sodipodi.sourceforge.net/DTD/sodipodi-0.dtd"
   xmlns:inkscape="http://www.inkscape.org/namespaces/inkscape"
   width="210mm"
   height="297mm"
   viewBox="0 0 210 297"
   version="1.1"
   id="svg8"
   inkscape:version="0.92.4 (unknown)"
   sodipodi:docname="logo.svg">
  <defs
     id="defs2" />
  <sodipodi:namedview
     id="base"
     pagecolor="#ffffff"
     bordercolor="#666666"
     borderopacity="1.0"
     inkscape:pageopacity="0.0"
     inkscape:pageshadow="2"
     inkscape:zoom="1.4"
     inkscape:cx="188.53667"
     inkscape:cy="708.70882"
     inkscape:document-units="mm"
     inkscape:current-layer="layer1"
     showgrid="false"
     inkscape:window-width="1920"
     inkscape:window-height="1016"
     inkscape:window-x="0"
     inkscape:window-y="27"
     inkscape:window-maximized="1" />
  <metadata
     id="metadata5">
    <rdf:RDF>
      <cc:Work
         rdf:about="">
        <dc:format>image/svg+xml</dc:format>
        <dc:type
           rdf:resource="http://purl.org/dc/dcmitype/StillImage" />
        <dc:title></dc:title>
      </cc:Work>
    </rdf:RDF>
  </metadata>
  <g
     inkscape:label="Layer 1"
     inkscape:groupmode="layer"
     id="layer1">
    <path
       id="path3715"
       style="stroke-width:0.26458332;fill:#000080"
       d="m 68.84186,72.459697 -2.18505,-4.837635 c -0.7627,0.833924 -1.52232,1.670277 -2.2565,2.52625 -4.44822,5.186132 1.36096,-1.246642 -3.92052,4.514644 -0.90581,0.820926 -1.80808,1.646127 -2.71756,2.463034 0.55936,0.483774 1.81496,1.549009 3.0782,2.617379 z m -2.60881,-5.775355 -2.05931,-4.559657 c -2.97906,0.652814 -5.93669,1.405753 -8.92811,2.003311 -1.89477,0.486055 -3.78431,0.989066 -5.67495,1.489369 -0.005,0.02117 -0.0124,0.04186 -0.0174,0.06309 -0.22129,0.942478 -0.35048,1.903862 -0.50365,2.860197 0.58806,0.619872 1.17644,1.239429 1.75676,1.866567 0.64702,0.699233 1.248,1.441992 1.91643,2.120794 0.67595,0.68645 1.40252,1.320551 2.11299,1.971217 0.73291,0.671226 1.46833,1.340085 2.21154,2.000039 0.91594,-0.820537 1.82404,-1.649962 2.73609,-2.474811 5.11466,-5.573555 -0.50322,0.642291 3.91442,-4.508304 0.82374,-0.960413 1.67908,-1.896401 2.5352,-2.831813 z m -2.45678,-5.438781 -3.32134,-7.353511 -8.71147,0.963333 c -0.0618,0.233004 -0.12096,0.466024 -0.17427,0.699504 -0.33207,1.454391 -0.25886,1.616825 -0.53645,3.22306 -0.13198,0.763674 -0.29401,1.521895 -0.44098,2.282826 -0.11238,0.556655 -0.55177,2.78033 -0.72699,3.501891 1.71427,-0.454354 3.42828,-0.909524 5.14638,-1.350307 2.93684,-0.587384 5.84112,-1.321955 8.76512,-1.966799 z m -3.64032,19.138617 c -1.03066,-0.873529 -2.05789,-1.750318 -3.0766,-2.637284 -0.70058,0.611839 -1.40988,1.213729 -2.08989,1.848313 -1.59227,1.485903 -3.07961,3.080939 -4.60865,4.632718 l 3.41437,1.946414 z m -3.79227,-3.266523 c -0.72286,-0.636011 -1.44225,-1.276202 -2.15267,-1.927651 -0.72967,-0.669115 -1.47459,-1.323453 -2.1693,-2.028802 -0.66382,-0.673985 -1.26049,-1.411149 -1.90292,-2.10556 -0.42188,-0.456021 -0.84813,-0.907707 -1.2754,-1.358679 -0.0102,0.04997 -0.0191,0.100186 -0.0298,0.150078 -0.22276,1.016044 -0.43055,2.12658 -0.7788,3.114485 -0.23194,0.657973 -0.62564,1.252516 -0.84563,1.91458 -0.26042,0.783777 -0.30486,1.630815 -0.66348,2.38728 -0.33333,0.904787 -0.69818,1.98864 -1.14896,2.849188 -0.17117,0.326771 -0.37759,0.63393 -0.58211,0.941474 l 4.71845,2.690176 c 1.60765,-1.621915 3.162,-3.299267 4.83128,-4.857189 0.65067,-0.607267 1.32802,-1.184836 1.9993,-1.76938 z m -5.60239,-22.151884 -10.5375,1.165246 -0.44998,2.175178 c 0.35785,0.510584 0.73356,1.041782 1.20861,1.699065 0.52332,0.72408 1.02,1.469633 1.59366,2.154525 1.12482,1.342931 2.16219,2.077411 3.44178,3.298427 0.0328,0.03133 0.0648,0.06347 0.0976,0.0949 0.55638,-0.144595 1.17278,-0.30496 1.43838,-0.374495 0.42429,-0.111078 0.84794,-0.224082 1.27195,-0.336069 0.052,-0.176264 0.10464,-0.352549 0.14796,-0.531079 0.15747,-0.649055 0.62234,-2.994273 0.7118,-3.43747 0.14646,-0.75834 0.30768,-1.513776 0.4392,-2.27485 0.28537,-1.651408 0.19308,-1.712104 0.53656,-3.222033 0.0313,-0.137428 0.0659,-0.274397 0.10002,-0.411339 z m -2.20081,10.923828 c -0.25631,0.06749 -0.51228,0.136127 -0.76871,0.203252 -0.18285,0.04787 -0.59511,0.15444 -0.89096,0.231934 0.45069,0.450568 0.89738,0.905103 1.34784,1.3559 0.0927,-0.599298 0.18803,-1.198097 0.31183,-1.791086 z m -0.5025,2.957224 c -0.11602,-0.122564 -0.23221,-0.245039 -0.34799,-0.367842 -0.62555,-0.62409 -1.24094,-1.258379 -1.87115,-1.877655 -0.91571,0.235181 -1.84062,0.465597 -2.32886,0.560663 -0.63892,0.124406 -1.28795,0.188309 -1.93202,0.282425 -1.2561,0.114753 -2.5125,0.229216 -3.76794,0.352879 l -1.7143,8.285662 7.89662,4.501924 c 0.21062,-0.31844 0.42634,-0.634411 0.60279,-0.972689 0.376,-0.720822 0.7907,-1.932291 1.06348,-2.675196 0.12641,-0.42024 0.26233,-0.837437 0.37943,-1.260366 0.0942,-0.340127 0.14249,-0.692982 0.25426,-1.027741 0.36992,-1.107901 0.49738,-0.930617 0.89918,-2.070743 0.29053,-0.824397 0.53907,-2.108688 0.719,-2.933264 0.0557,-0.264722 0.10137,-0.531349 0.1475,-0.798052 z m -3.02519,-3.016088 c -1.2189,-1.127058 -2.08493,-1.757871 -3.21602,-3.108664 -0.57783,-0.690078 -1.07854,-1.441447 -1.60574,-2.170943 -0.26555,-0.367456 -0.48466,-0.674929 -0.69948,-0.976886 l -1.50104,7.253305 c 1.16021,-0.112236 2.32099,-0.218429 3.4815,-0.324444 0.62709,-0.0921 1.25924,-0.154412 1.88124,-0.276164 0.33117,-0.06482 0.97796,-0.223961 1.65954,-0.396208 z"
       inkscape:connector-curvature="0"
       inkscape:export-xdpi="96"
       inkscape:export-ydpi="96" />
    <flowRoot
       xml:space="preserve"
       id="flowRoot3850"
       style="font-style:normal;font-variant:normal;font-weight:bold;font-stretch:normal;font-size:53.33333588px;line-height:1.25;font-family:Comfortaa;-inkscape-font-specification:'Comfortaa Bold';text-align:center;letter-spacing:0px;word-spacing:0px;text-anchor:middle;fill:#000080;fill-opacity:1;stroke:none;"
       transform="matrix(0.26458333,0,0,0.26458333,4.157738,6.6145825)"
       inkscape:export-xdpi="96"
       inkscape:export-ydpi="96"><flowRegion
         id="flowRegion3852"
         style="font-style:normal;font-variant:normal;font-weight:bold;font-stretch:normal;font-size:53.33333588px;line-height:1.25;font-family:Comfortaa;-inkscape-font-specification:'Comfortaa Bold';text-align:center;text-anchor:middle;fill:#000080;"><rect
           id="rect3854"
           width="307.14288"
           height="118.57142"
           x="164.28572"
           y="263.23398"
           style="font-style:normal;font-variant:normal;font-weight:bold;font-stretch:normal;font-size:53.33333588px;line-height:1.25;font-family:Comfortaa;-inkscape-font-specification:'Comfortaa Bold';text-align:center;text-anchor:middle;fill:#000080;" /></flowRegion><flowPara
         id="flowPara3856"
         style="font-style:normal;font-variant:normal;font-weight:bold;font-stretch:normal;font-family:Cantarell;-inkscape-font-specification:'Cantarell Bold';fill:#000080;">DISsecT</flowPara></flowRoot>  </g>
</svg>
